<svg width="24" height="24" viewBox="0 0 24 24" fill="none" xmlns="http://www.w3.org/2000/svg">
<path d="M6.82703 0V3.85284H8.72973V0H6.82703ZM10.6324 0.963211V3.85284H12.5351V0.963211H10.6324ZM1 4.81605L1.11892 5.86956L2.84325 21.4114C2.99561 22.875 4.24426 24 5.6973 24H14.6162C16.0692 24 17.3179 22.875 17.4702 21.4114L17.9162 18.301H20.1459C21.7105 18.301 23 16.9954 23 15.4114V12.5217C23 10.9377 21.7105 9.63211 20.1459 9.63211H18.8081L19.1946 5.86956L19.3136 4.81605H1ZM3.14054 6.74248H17.1729L15.5675 21.2007C15.5155 21.7011 15.1105 22.0736 14.6162 22.0736H5.6973C5.20304 22.0736 4.79797 21.7011 4.74595 21.2007L3.14054 6.74248ZM18.5999 11.5585H20.1459C20.6848 11.5585 21.0973 11.9762 21.0973 12.5217V15.4114C21.0973 15.9569 20.6848 16.3746 20.1459 16.3746H18.0946L18.5999 11.5585Z" fill="#616161"/>
</svg>
