<?xml version="1.0" encoding="UTF-8"?>
<svg id="Layer_1" data-name="Layer 1" xmlns="http://www.w3.org/2000/svg" xmlns:xlink="http://www.w3.org/1999/xlink" viewBox="0 0 1353.65 1536">
  <defs>
    <style>
      .cls-1 {
        fill: #d9721b;
        stroke-width: 0px;
      }
    </style>
  </defs>
  <image width="1024" height="1536" transform="translate(329.65)" xlink:href="../../Users/Administrator/Downloads/ChatGPT Image 2025년 11월 10일 오후 12_18_24.png"/>
  <path class="cls-1" d="m269.49,215.84c-28.14-40.06-83.45-143.12-84.01-144.16-1.04-1.95-3.08-3.17-5.29-3.17h-82.06s-.07,0-.11,0c-.17,0-.34.01-.51.03-.07,0-.13.01-.2.02-.22.03-.44.07-.66.13-.04.01-.09.03-.13.04-.17.05-.34.1-.51.17-.08.03-.15.06-.23.09-.14.06-.28.12-.41.19-.07.04-.14.07-.2.11-.17.09-.33.2-.49.31-.03.02-.05.03-.08.05-.19.13-.36.28-.53.44-.04.03-.07.07-.1.1-.13.13-.26.26-.38.4-.04.05-.08.1-.12.15-.11.14-.22.28-.32.43-.02.03-.05.07-.07.1-.01.02-.02.03-.03.05-.12.2-.24.4-.34.62-.46.97-46.51,97.81-90.83,139.89-2.4,2.28-2.5,6.08-.22,8.48,1.18,1.24,2.76,1.87,4.35,1.87,1.48,0,2.97-.55,4.13-1.65,37.26-35.37,74.25-105.02,87.94-132.28,13.61,27.71,50.67,99.11,88.01,135.33,1.12,1.09,2.62,1.69,4.18,1.69h74.32c2.24,0,4.29-1.25,5.32-3.23,1.03-1.99.87-4.38-.42-6.22Z"/>
  <path class="cls-1" d="m157.35,210.19h-22.04l-29.81-63.63c-2.31-4.94-9.33-4.94-11.65,0l-29.81,63.63h-22.04c-3.31,0-6,2.69-6,6s2.69,6,6,6h115.35c3.31,0,6-2.69,6-6s-2.69-6-6-6Z"/>
</svg>